<?xml version="1.0" encoding="utf-8"?>
<!-- Generator: Adobe Illustrator 19.0.0, SVG Export Plug-In . SVG Version: 6.00 Build 0)  -->
<svg version="1.1" id="Camada_1" xmlns="http://www.w3.org/2000/svg" xmlns:xlink="http://www.w3.org/1999/xlink" x="0px" y="0px"
	 viewBox="-32 62.1 48 48" style="enable-background:new -32 62.1 48 48;" xml:space="preserve">
<style type="text/css">
	.st0{fill:#3378FF;}
</style>
<g id="XMLID_23_">
	<g id="XMLID_20_">
		<g id="XMLID_104_">
			<path id="XMLID_106_" class="st0" d="M-29.8,87l11.5-11.5c0.5-0.5,0.5-1.3,0-1.8l0,0c-0.5-0.5-1.3-0.5-1.8,0l-11.5,11.5
				c-0.5,0.5-0.5,1.3,0,1.8l0,0C-31.1,87.5-30.3,87.5-29.8,87z"/>
			<path id="XMLID_105_" class="st0" d="M-29.8,85.2l11.5,11.5c0.5,0.5,0.5,1.3,0,1.8l0,0c-0.5,0.5-1.3,0.5-1.8,0l-11.5-11.4
				c-0.5-0.5-0.5-1.3,0-1.8l0,0C-31.1,84.8-30.3,84.8-29.8,85.2z"/>
		</g>
		<g id="XMLID_102_">
			<path id="XMLID_108_" class="st0" d="M13.8,87L2.3,75.5c-0.5-0.5-0.5-1.3,0-1.8l0,0c0.5-0.5,1.3-0.5,1.8,0l11.5,11.5
				c0.5,0.5,0.5,1.3,0,1.8l0,0C15.1,87.5,14.3,87.5,13.8,87z"/>
			<path id="XMLID_103_" class="st0" d="M13.8,85.2L2.3,96.7c-0.5,0.5-0.5,1.3,0,1.8l0,0c0.5,0.5,1.3,0.5,1.8,0l11.5-11.4
				c0.5-0.5,0.5-1.3,0-1.8l0,0C15.1,84.8,14.3,84.8,13.8,85.2z"/>
		</g>
	</g>
	<path id="XMLID_107_" class="st0" d="M-11.2,97.4l8.5-21.8c0.3-0.6-0.1-1.3-0.7-1.6l0,0c-0.6-0.3-1.3,0.1-1.6,0.7l-8.5,21.8
		c-0.3,0.6,0.1,1.3,0.7,1.6l0,0C-12.1,98.3-11.4,98-11.2,97.4z"/>
</g>
</svg>
